<?xml version="1.0" encoding="utf-8"?>
<!-- Generator: Adobe Illustrator 19.0.0, SVG Export Plug-In . SVG Version: 6.00 Build 0)  -->
<svg version="1.1" id="_x39_4c1f45f-2d92-458e-bbfe-f6c69da92e14"
	 xmlns="http://www.w3.org/2000/svg" xmlns:xlink="http://www.w3.org/1999/xlink" x="0px" y="0px"
	 viewBox="467 -365.6 1034.9 831.6" style="enable-background:new 467 -365.6 1034.9 831.6;" xml:space="preserve">
<style type="text/css">
	.st0{fill:#F5F5F5;}
	.st1{fill:#83B93E;}
	.st2{fill:none;stroke:#535461;stroke-width:2;stroke-miterlimit:10;}
	.st3{opacity:0.2;fill:#F5F5F5;enable-background:new    ;}
	.st4{opacity:0.2;fill:#83B93E;enable-background:new    ;}
	.st5{opacity:0.5;}
	.st6{fill:url(#SVGID_1_);}
	.st7{fill:#5A5773;}
	.st8{fill:#605D82;}
	.st9{opacity:0.1;enable-background:new    ;}
	.st10{opacity:0.1;}
	.st11{fill:#A1616A;}
	.st12{fill:#E1E7EF;}
	.st13{fill:#67647E;}
	.st14{fill:#4A4347;}
	.st15{fill:url(#SVGID_2_);}
	.st16{fill:#FFFFFF;}
	.st17{fill:#E0E0E0;}
	.st18{opacity:5.000000e-002;enable-background:new    ;}
	.st19{opacity:0.5;fill:#83B93E;enable-background:new    ;}
	.st20{opacity:0.4;fill:#83B93E;enable-background:new    ;}
	.st21{opacity:0.3;fill:#83B93E;enable-background:new    ;}
</style>
<title>envelope</title>
<g>
	<ellipse class="st0" cx="1022.8" cy="327.1" rx="367.2" ry="104.9"/>
	<path class="st1" d="M1372.2-81c0,0-65,65-28.3,161.5s-62.9,257-62.9,257s1-0.2,3.1-0.5c133.6-23.6,200-176.4,125.7-289.9
		C1382.1,5,1359.3-44.5,1372.2-81z"/>
	<path class="st2" d="M1372.2-81c0,0-36.7,79.7,0,144.8s6.3,247.6-91.3,273.8"/>
	<path class="st1" d="M1488,182c0,0-74.2-11.8-81,54.7s-142.7,75.7-142.7,75.7s0.9,0.6,2.5,1.7c112.2,73.7,219.5,46.9,203.4-50.9
		C1464.2,226.9,1464.7,190.4,1488,182z"/>
	<path class="st3" d="M1488,182c0,0-74.2-11.8-81,54.7s-142.7,75.7-142.7,75.7s0.9,0.6,2.5,1.7c112.2,73.7,219.5,46.9,203.4-50.9
		C1464.2,226.9,1464.7,190.4,1488,182z"/>
	<path class="st2" d="M1488,182c0,0-57.6,12.7-52.9,65c4.7,52.4-85.6,115.2-170.8,65.4"/>
	<path class="st4" d="M639.8-331.5c-8.5-0.3-17.1,0-25.1,3c-21.6,8-31.8,34.4-28.5,57.2c3.3,22.8,17,42.6,31.2,60.7
		s29.6,36,37.4,57.7c3.9,10.8,5.7,22.9,1.8,33.7c-6.1,16.6-24.4,26-42,27.9c-17.6,1.9-35.3-1.8-53-3.1c-7.4-0.5-15-0.6-22,1.8
		c-7.7,2.7-14.1,8.1-19.9,13.7c-22.9,22.1-41.3,52.3-38.3,84.1c3.4,36,33.3,64.4,66.1,79.6c10.9,5.1,22.3,9.1,31.9,16.4
		c25.2,19,30.8,54.7,28.3,86.2s-11,63-6.3,94.2c5.6,36.3,30.3,69.1,63.7,84.4c29.7,13.6,67,12.8,93.4-6.5
		c12.9-9.4,22.6-22.5,31.1-36c12.8-20.4,23.1-42.2,30.9-64.9c3.7-10.8,7.1-22.4,15.7-30c5.2-4.6,12-7.2,18.8-9.2
		c20.3-6.1,41.6-7.7,62.1-13.1c20.5-5.4,41-15.4,52.2-33.4c15.7-25.5,8.4-58.1,8.5-88.1c0.1-68.4,41-129.6,56.1-196.2
		c4.9-21.8,6.8-45.9-4.2-65.3c-7.5-13.2-20.1-22.7-33.4-30c-29.2-16.2-62.3-23.4-94.9-30.4c-45.3-9.7-100.4-11-135.5-42.5
		C731.9-309.9,685.7-331.5,639.8-331.5z"/>
	<g class="st5">
		
			<linearGradient id="SVGID_1_" gradientUnits="userSpaceOnUse" x1="710.9584" y1="-25.2187" x2="935.5981" y2="-25.2187" gradientTransform="matrix(1 0 0 -1 -120 14.7)">
			<stop  offset="0" style="stop-color:#808080;stop-opacity:0.25"/>
			<stop  offset="0.54" style="stop-color:#808080;stop-opacity:0.12"/>
			<stop  offset="1" style="stop-color:#808080;stop-opacity:0.1"/>
		</linearGradient>
		<path class="st6" d="M804.2-66.9c0-16.5-2.6-32.8-7.6-48.5l-12.6-39c0-0.7,0-1.3,0-1.9c0.4-25-19.1-37.5-26.6-36.1
			c-7.7,1.4-29-9.3-29-9.3v0.3c-1.5-1.7-2.8-3.5-3.9-5.4c15.3-11.1,18.6-32.5,7.5-47.8c-0.2-0.2-0.3-0.4-0.5-0.6
			c2.3-1.7,4.1-4.1,5.1-6.8c1.7-4.9,0.4-10.5-2.4-14.9c-1.2-1.8-2.6-3.5-4.2-5c-2.4-2.4-5-4.5-7.8-6.4c-7-4.8-14.7-9-23.1-10.5
			c-1.5-0.3-3-0.3-4.4,0c-1.3,0.5-2.5,1.2-3.6,1.9c-5.7,3.3-12.9,1.9-19.5,1.5c-6.6-0.3-14.7,1.5-16.8,7.7c-0.7,1.9-0.6,4-1,6
			c-1,4.8-4.8,8.6-7.6,12.6c-2.9,4-5,9.4-2.6,13.8c0.8,1.5,2.1,2.8,2.1,4.5c0,1.2-0.7,2.3-1,3.4c-0.7,2.6,0.6,5.2,2.7,7.1
			c0.9,1,2,1.8,3.1,2.4c3.3,1.7,7.2,2.2,10.5,3.8c1.7,0.8,3.2,1.9,4.6,3.1c3.3,3.5,5.1,8.2,5,13l0.7,0.1c0,0.2,0,0.4,0,0.6
			c0.7,0.1,1.5,0.2,2.3,0.2c1.1,1.8,2.4,3.5,3.8,5c-0.2,0.9-0.5,1.8-0.8,2.7c-2.5,1.7-22.6,15.1-45.6,11.9
			c-24.5-3.5-38.5,103.5-38.5,103.5c-0.9,6.1-1.3,12.3-1.3,18.5c-0.1,15.7,3.2,36.3,21.6,33.3l9.8-3.2V7.6c0,0,1.4,14.5-3.5,24.1
			c-4.9,9.6,15.4,6.2,15.4,6.2s0.8,0.8,2.2,2.2l-0.5,1.3l0.6,0.6c-2.7,9.1-6.3,17.9-10.7,26.3l0.6,0.3c-0.4,0.7-0.6,1-0.6,1
			s7.5,3.8,17.9,8.8c8.3,28.2,26.6,93.4,20.6,105.8l0.2,0.4l0,0c1.1,2.3,7.4,16.1,6.1,28.6c-1.1,11.2,14.4,62.3,20.2,80.9l-2.7,0.6
			l9.8,35.2l-2.1,22.8c0,0-11.9,31.8,16.1,25.5s20.3-31.8,20.3-31.8l0.7-51.8c0,0-2.7-1.5-6-2.9c-2.3-6.2-7.3-20.8-7.3-30.9
			c0-13.1-9.1-69.7-9.1-69.7V191v-0.2v-0.1l-0.1-0.8v-0.1c0-0.7-0.1-1.7-0.2-2.8V187c-1-15.3-4.2-67.3-1.9-94.4
			c2-1.4,4.1-2.6,6.3-3.8c6.8,17.2,24.4,63.7,23.2,83.2c-1.4,24.1-0.3,5.2,0,2.1c0.1-1,0.2,0.2,0.2,2.8c0,0.5,0,1,0,1.6
			c0,0.6,0,1.2,0,1.8s0,1.3,0,2.1c0,0.4,0,0.7,0,1.1c0,0.8,0,1.5,0,2.4c0,0.4,0,0.8,0,1.3c0,2.1,0,4.4-0.1,6.9c0,0.5,0,1,0,1.5
			c0,1.5,0,3-0.1,4.5c0,2.1-0.1,4.1-0.1,6.2c-0.1,4.7-0.2,9.5-0.4,14c0,0.5,0,1-0.1,1.5c0,1-0.1,1.9-0.1,2.9s-0.1,1.9-0.1,2.7
			c0,0.9-0.1,1.8-0.1,2.6c-0.1,1-0.1,1.9-0.2,2.8l-3.8-0.5l-0.8,8.7c-1.3,13.9,0.5,27.8,5.2,40.9c1.3,3.6,2.3,6.6,2.5,7.6
			c0.7,3.5,0,28.3,0,28.3s4.2,32.4,23.8,26.2c8.8-2.8,13.1-11.3,15.1-19.9c2.3-9.9,1.4-20.3-2.4-29.7c-2.8-7-5.6-16.8-3.6-24.4
			c3.5-13.1,3.5-31.8,3.5-31.8l-2.2-0.3c0.5-1,1-2.1,1.5-3.1c0,0-0.7-47.6,5.6-53.8c3.5-3.4,3.1-11.6,2.1-18.3
			c-1.5-9.7-1.9-19.6-1-29.4c0.4-5,1-9.4,1.8-11c1.8-3.7,3.7-40.4-4.5-58.2l1.7-0.5l-0.3-1.3l0.3-0.1c1.2,3.3,2.6,6.5,4.2,9.7
			c0.4,0.3,0.9,0.6,1.4,0.7c22.6-4,23.6-25.1,22.3-36.7c1,0.5,1.5,0.8,1.5,0.8l2.1-30.4c2.2-4.9,2.9-11.1,2.9-17.8
			C815.7-35.5,804.2-66.9,804.2-66.9z M779.2,19.6c-1.6-13.2-3.7-25.7-3.7-25.7L765-43.4V-57l16.6,62.1L779.2,19.6z"/>
	</g>
	<path class="st7" d="M732.1,223.2l-0.8,8.5c-1.2,13.6,0.5,27.2,5.1,40c1.2,3.5,2.2,6.4,2.4,7.4c0.7,3.4,0,27.7,0,27.7
		s4,31.7,22.9,25.6c8.5-2.7,12.6-11.1,14.6-19.4c2.2-9.7,1.4-19.8-2.3-29c-2.7-6.8-5.4-16.4-3.5-23.8c3.4-12.8,3.4-31,3.4-31
		L732.1,223.2z"/>
	<path class="st8" d="M711.8,76.8c0,0,26.3,64.1,25,87.7s-0.3,5.1,0,2c0.6-5.4,0,58.7-2,66.1c0,0,27.7,20.2,38.5-6.7
		c0,0-0.7-46.5,5.4-52.6c3.3-3.3,3-11.4,2-17.9c-1.5-9.5-1.8-19.1-1-28.7c0.4-4.9,1-9.3,1.7-10.8c2-4,4-49.9-8.1-62.7L711.8,76.8z"
		/>
	<path class="st9" d="M738.1,232.6c2-7.4,2.6-71.5,2-66.1c-0.3,3-1.4,21.6,0-2s-25-87.7-25-87.7l58.9-22.6c-0.3-0.3-0.6-0.7-0.8-1
		l-61.4,23.6c0,0,26.3,64.1,25,87.7s-0.3,5.1,0,2c0.6-5.4,0,58.7-2,66.1c0,0,11,8.1,21.9,7.2C747,239.1,738.1,232.6,738.1,232.6z"/>
	<path class="st7" d="M688.9,284.6l9.4,34.4l-2,22.3c0,0-11.5,31,15.5,25c27-6.1,19.6-31,19.6-31l0.7-50.6c0,0-10.8-6.1-15.5-5.4
		S688.9,284.6,688.9,284.6z"/>
	<path class="st8" d="M642.3,60.6c0,0,31,100.5,23.6,116c0,0,7.4,14.8,6.1,28.3c-1.3,13.5,21.6,85.7,21.6,85.7l33.7-6.1
		c0,0-8.1-20.2-8.1-33.1s-8.8-68.2-8.8-68.2s-7.4-101.2,1.4-112L642.3,60.6z"/>
	<g class="st10">
		<path d="M709.2,79.6c-5.6,22.9,0.6,107.2,0.6,107.2s8.8,55.3,8.8,68.2c0,9.8,4.7,23.9,6.9,30l1.8-0.3c0,0-8.1-20.2-8.1-33.1
			c0-12.8-8.8-68.2-8.8-68.2S704.8,106.4,709.2,79.6z"/>
		<path d="M666,176.7l0.2,0.3c0.1-0.3,0.1-0.7,0.1-1C666.2,176.2,666.1,176.4,666,176.7z"/>
		<path d="M710.3,74.7c0.3-1.2,0.8-2.3,1.5-3.2l-69.5-10.8c0,0,0.4,1.3,1.1,3.7L710.3,74.7z"/>
	</g>
	<path class="st11" d="M804.2,24.2c0,0,10.1,37.8-20.2,43.2c-0.5-0.1-1-0.4-1.4-0.7c0,0-17.5-34.4-4-47.9L804.2,24.2z"/>
	<path class="st11" d="M680.1-226.7c0,0,2,28.3-20.2,41.8c-22.3,13.5,47.2,50.6,47.2,50.6l36.4-58c0,0-15.5,2-24.9-25L680.1-226.7z"
		/>
	<path class="st9" d="M665.3-182.9c0,0,34.4,71.5,65.4,4l47.9,237.5c0,0-74.2,22.9-74.9,33.7s-74.9-27.7-74.9-27.7S645,35,641,16.8
		S665.3-182.9,665.3-182.9z"/>
	<path class="st12" d="M665.3-184.3c0,0,34.4,71.5,65.4,4l47.9,237.5c0,0-74.2,22.9-74.9,33.7s-74.9-27.7-74.9-27.7
		S645,33.6,641,15.4S665.3-184.3,665.3-184.3z"/>
	<path class="st7" d="M699,303.5c0,0-8.8-19.6,11.5-19.6s16.9,17.5,16.9,17.5L699,303.5z"/>
	<path class="st7" d="M744.9,252.9c0,0-8.1-20.9,12.1-21.6c20.2-0.7,10.1,18.9,10.1,18.9L744.9,252.9z"/>
	<path class="st9" d="M727.7-199.5c0,0,20.6,10.5,28,9.1c7.4-1.4,27,11.5,25.6,37.1l12.2,38.2c4.9,15.3,7.4,31.3,7.3,47.4l0,0
		c0,0,17.5,48.6,8.1,70.2l-2,29.7c0,0-15.5-8.8-31.7-6.1l4.1-24.2L761-66.9l-30.4-73.5L727.7-199.5z"/>
	<path class="st13" d="M727.7-200.8c0,0,20.6,10.5,28,9.1c7.4-1.4,27,11.5,25.6,37.1l12.2,38.2c4.9,15.3,7.4,31.3,7.3,47.4l0,0
		c0,0,17.5,48.6,8.1,70.2l-2,29.7c0,0-15.5-8.8-31.7-6.1l4-24.3L761-68.2l-30.3-73.5L727.7-200.8z"/>
	<path class="st9" d="M761.8-118.8v76.2l10.1,36.4c0,0,6.7,39.8,4.7,51.9s-34.4,14.8-43.2,4.7c-8.8-10.1-4-96.5-4-96.5l-1.7-126.5
		l1.4-4L761.8-118.8z"/>
	<path class="st13" d="M763.1-122.2V-46l10.1,36.4c0,0,6.7,39.8,4.7,51.9s-34.4,14.8-43.2,4.7c-8.8-10.1-4-96.5-4-96.5l-1.7-126.5
		L763.1-122.2z"/>
	<path class="st9" d="M627.2-58.8l21.6,67.1L638.6,37c0,0,47.9,50.6,78.3,26.3c0,0,3.4-103.2-3.4-127.5s-39.1-105.9-39.1-105.9
		l-6.7-21.6l-35.8,20.2L627.2-58.8z"/>
	<path class="st13" d="M625.5-62.2V3.9c0,0,1.4,14.2-3.4,23.6c-4.7,9.4,14.8,6.1,14.8,6.1s47.9,50.6,78.3,26.3
		c0,0,3.4-103.2-3.4-127.5s-39.1-105.9-39.1-105.9l-6.7-21.6l-35.8,20.2L625.5-62.2z"/>
	<path class="st9" d="M677.8-206.9c0,0-20.6,15.2-44.2,11.8c-23.6-3.4-37.1,101.2-37.1,101.2s-8.8,54,19.6,49.3l62.7-20.9
		c0,0-13.5-14.2-11.5-32.4l-30.4,12.1l1.4-58L677.8-206.9z"/>
	<path class="st9" d="M597.8-95.2c0,0-8.8,54,19.6,49.3l62.7-20.9c0,0-13.5-14.2-11.5-32.4l-30.3,12.1L597.8-95.2z"/>
	<path class="st11" d="M667.2-92.2c0,0,21.1-27.7,36.6-14.4s-31,37.6-31,37.6L667.2-92.2z"/>
	<path class="st13" d="M677.8-208.2c0,0-20.6,15.2-44.2,11.8c-23.6-3.4-37.1,101.2-37.1,101.2s-8.8,54,19.6,49.3l62.7-20.9
		c0,0-13.5-14.2-11.5-32.4l-30.4,12.1l1.4-58l34.4-28.3L677.8-208.2z"/>
	<path class="st9" d="M719.2-216l-38.5-9.4c0,0,2,2.3-0.3,11.1c6.2,7.1,13.8,16.5,23.9,16.5c7.3,0,14.3-2.3,20.2-6.7
		C722.4-208.1,720.6-212,719.2-216z"/>
	<circle class="st11" cx="703.7" cy="-232.8" r="33.7"/>
	<path class="st9" d="M716.5-247.5c7.8-1.3,16.4-4.8,19-12.3c1.7-4.8,0.4-10.2-2.3-14.5c-2.7-4.3-6.8-7.6-10.9-10.5
		c-6.7-4.7-14.2-8.8-22.3-10.2c-1.4-0.3-2.9-0.3-4.3,0c-1.2,0.5-2.4,1.1-3.5,1.9c-5.5,3.2-12.5,1.8-18.9,1.5
		c-6.4-0.3-14.1,1.5-16.2,7.6c-0.6,1.9-0.6,3.9-1,5.8c-1,4.7-4.6,8.4-7.3,12.3c-2.7,3.9-4.8,9.3-2.5,13.5c0.8,1.4,2.1,2.8,2.1,4.4
		c-0.2,1.2-0.6,2.3-1,3.4c-1,3.5,1.8,7,5,8.7c3.2,1.7,6.9,2.2,10.2,3.7c6.3,3.1,10.1,9.5,9.9,16.5c3,0.3,6.5,0.5,8.5-1.7
		c0.9-1,1.3-2.3,2.2-3.4c1-1.4,2.7-2.2,4-3.3c7.1-5.8,2-13.8,6-20.1c2.1-3.2,5.4-2.2,8.8-2.2C706.9-246.4,711.7-246.7,716.5-247.5z"
		/>
	<path class="st14" d="M715.8-248.2c7.8-1.3,16.4-4.8,19.1-12.3c1.7-4.8,0.4-10.2-2.3-14.5c-2.7-4.3-6.8-7.6-10.9-10.5
		c-6.7-4.7-14.2-8.8-22.3-10.2c-1.4-0.3-2.9-0.3-4.3,0c-1.2,0.5-2.4,1.1-3.5,1.9c-5.5,3.2-12.5,1.8-18.9,1.5
		c-6.4-0.3-14.1,1.5-16.2,7.6c-0.6,1.9-0.6,3.9-1,5.8c-1,4.7-4.6,8.4-7.3,12.3c-2.7,3.9-4.8,9.3-2.5,13.5c0.8,1.4,2.1,2.8,2.1,4.4
		c-0.2,1.2-0.6,2.3-1,3.4c-1,3.5,1.8,7,5,8.7c3.2,1.7,6.9,2.2,10.2,3.7c6.3,3.1,10.2,9.6,10,16.6c3,0.3,6.5,0.5,8.5-1.7
		c0.9-1,1.3-2.3,2.2-3.4c1-1.4,2.7-2.2,4-3.3c7.1-5.8,2-13.8,6-20.1c2.1-3.2,5.4-2.2,8.8-2.2C706.2-247,711.1-247.4,715.8-248.2z"/>
	<path class="st9" d="M756.7-134.7c0,0,7.4,38.5,4,53.3c-2.1,8.6-1.8,17.7,0.9,26.1"/>
	<path class="st9" d="M636.8-118.5c0,0-3.2,25.6,2.2,31"/>
	<path d="M825.2,197.5c0.9,0,1.6-0.7,1.6-1.6c0-0.9-0.7-1.6-1.6-1.6s-1.6,0.7-1.6,1.6C823.6,196.7,824.3,197.5,825.2,197.5
		L825.2,197.5z"/>
	<g class="st5">
		
			<linearGradient id="SVGID_2_" gradientUnits="userSpaceOnUse" x1="1143.1053" y1="-340.2507" x2="1143.1053" y2="221.7206" gradientTransform="matrix(1 0 0 -1 -120 14.7)">
			<stop  offset="0" style="stop-color:#808080;stop-opacity:0.25"/>
			<stop  offset="0.54" style="stop-color:#808080;stop-opacity:0.12"/>
			<stop  offset="1" style="stop-color:#808080;stop-opacity:0.1"/>
		</linearGradient>
		<path class="st15" d="M1309.7,14.1v-0.9l-286.2-220.1c-0.4-0.3-0.9-0.3-1.2,0L736,13.3v341.1h0.5v0.5h573.7V13.8L1309.7,14.1z"/>
	</g>
	<polygon class="st16" points="1299.8,344.9 745.9,344.9 745.9,15.5 1022.8,-197.4 1299.8,15.5 	"/>
	<polygon class="st17" points="1279.9,325.4 765.8,325.4 765.8,19.7 1022.8,-177.9 1279.9,19.7 	"/>
	
		<rect x="843.5" y="-148.1" transform="matrix(-0.9673 0.2536 -0.2536 -0.9673 1992.9108 -140.9104)" class="st1" width="324.1" height="412.3"/>
	<rect x="862.3" y="-121.9" class="st0" width="324.1" height="412.3"/>
	<polygon class="st18" points="748.5,16 1025.5,180.7 748.5,345.4 	"/>
	<polygon class="st16" points="746.4,16 1023.4,180.7 746.4,345.4 	"/>
	<polygon class="st18" points="1298.2,16 1021.3,180.7 1298.2,345.4 	"/>
	<polygon class="st16" points="1300.3,16 1023.4,180.7 1300.3,345.4 	"/>
	<polygon class="st18" points="746.4,340.2 1023.4,124.1 1300.3,340.2 	"/>
	<polygon class="st16" points="746.4,345.4 1023.4,129.3 1300.3,345.4 	"/>
	<path class="st2" d="M802.7,370.4c0,0-13.9-47.2,2.6-82c7-14.5,9.1-30.9,6-46.8c-1.5-7.5-3.7-14.9-6.6-22"/>
	<path class="st1" d="M815,197.8c0,5.8-10.5,22.6-10.5,22.6S794,203.5,794,197.8c0-5.8,4.7-10.5,10.5-10.5
		C810.3,187.3,815,192,815,197.8z"/>
	<path class="st1" d="M832.4,229.8c-3.1,4.9-21.1,13.2-21.1,13.2s0.3-19.8,3.5-24.6c3.4-4.7,9.9-5.8,14.6-2.4
		C833.8,219.1,835.1,225.1,832.4,229.8z"/>
	<path class="st1" d="M831.6,284.6c-5.2,2.6-24.9,0.8-24.9,0.8s10.3-16.9,15.4-19.5c5.1-2.8,11.4-1,14.3,4c2.8,5.1,1,11.4-4,14.3
		C832.1,284.3,831.8,284.5,831.6,284.6L831.6,284.6z"/>
	<path class="st1" d="M821.7,325.9c-4.7,3.4-24.4,5-24.4,5s7.3-18.4,11.9-21.8c4.8-3.2,11.3-1.9,14.5,2.9
		C826.8,316.5,825.8,322.5,821.7,325.9z"/>
	<path class="st1" d="M789.3,244.2c4.2,4,23.5,8.2,23.5,8.2s-4.7-19.2-8.9-23.2c-4.3-3.8-11-3.4-14.8,0.9
		C785.5,234.1,785.6,240.2,789.3,244.2L789.3,244.2z"/>
	<path class="st1" d="M778.3,292.7c5.2,2.6,24.9,0.8,24.9,0.8s-10.3-16.9-15.4-19.5c-5.3-2.4-11.5,0-13.9,5.2
		C771.6,284.1,773.5,290,778.3,292.7L778.3,292.7z"/>
	<path class="st1" d="M774.1,341.2c4.7,3.4,24.4,5,24.4,5s-7.3-18.4-11.9-21.8c-4.5-3.7-11.1-3-14.8,1.5s-3,11.1,1.5,14.8
		C773.5,340.8,773.8,341,774.1,341.2z"/>
	<rect x="881.2" y="-103" class="st19" width="130.1" height="10.5"/>
	<rect x="881.2" y="-61.1" class="st19" width="281.1" height="10.5"/>
	<rect x="881.2" y="-33.8" class="st19" width="281.1" height="10.5"/>
	<rect x="881.2" y="-6.5" class="st20" width="281.1" height="10.5"/>
	<rect x="881.2" y="20.7" class="st20" width="281.1" height="10.5"/>
	<rect x="881.2" y="48" class="st21" width="160.5" height="10.5"/>
	<rect x="881.2" y="75.3" class="st21" width="219.2" height="10.5"/>
</g>
</svg>
