<?xml version="1.0" encoding="utf-8"?>
<!-- Generator: Adobe Illustrator 19.0.0, SVG Export Plug-In . SVG Version: 6.00 Build 0)  -->
<svg version="1.1" id="ee32c68f-7624-44c0-a731-77ce30d0b408"
	 xmlns="http://www.w3.org/2000/svg" xmlns:xlink="http://www.w3.org/1999/xlink" x="0px" y="0px" viewBox="450 -305 1000 710"
	 style="enable-background:new 450 -305 1000 710;" xml:space="preserve">
<style type="text/css">
	.st0{fill:#FF6584;}
	.st1{fill:#F2F2F2;}
	.st2{fill:#3F3D56;}
	.st3{fill:#2F2E41;}
	.st4{fill:#FFFFFF;}
	.st5{fill:#83B93E;}
</style>
<title>responsiveness</title>
<g>
	<circle class="st0" cx="643.5" cy="-202.1" r="56.4"/>
	<path class="st1" d="M918,9.6c0,133.1-79.1,179.6-176.8,179.6S564.4,142.7,564.4,9.6s176.8-302.5,176.8-302.5S918-123.5,918,9.6z"
		/>
	<polygon class="st2" points="734.8,168.8 736.6,57.4 811.9,-80.4 736.9,39.9 737.7,-10.2 789.6,-109.9 737.9,-23.4 737.9,-23.4 
		739.4,-113.5 795,-192.9 739.6,-127.7 740.5,-292.9 734.8,-74.2 735.2,-83.2 678.7,-169.7 734.3,-65.9 729.1,34.7 728.9,32.1 
		663.7,-59 728.7,41.5 728,54.1 727.9,54.3 728,55.3 714.6,310.6 732.5,310.6 734.6,178.8 799.4,78.5 	"/>
	<path class="st1" d="M1443.9,64.1c0,109-64.8,147-144.7,147c-79.9,0-144.7-38-144.7-147s144.7-247.6,144.7-247.6
		S1443.9-44.9,1443.9,64.1z"/>
	<polygon class="st2" points="1294,194.5 1295.5,103.3 1357.1,-9.6 1295.7,89 1296.4,48 1338.9,-33.7 1296.5,37.1 1296.5,37.1 
		1297.7,-36.6 1343.2,-101.6 1297.9,-48.2 1298.7,-183.5 1294,-4.5 1294.3,-11.8 1248.1,-82.7 1293.6,2.3 1289.3,84.7 1289.2,82.5 
		1235.8,8 1289,90.2 1288.5,100.5 1288.4,100.7 1288.4,101.5 1277.5,310.5 1292.1,310.5 1293.8,202.6 1346.9,120.5 	"/>
	<ellipse class="st2" cx="945" cy="307" rx="488.9" ry="24.7"/>
	<ellipse class="st2" cx="1242.8" cy="347.8" rx="83.7" ry="4.2"/>
	<ellipse class="st2" cx="939.8" cy="388.7" rx="83.7" ry="4.2"/>
	<ellipse class="st2" cx="709.9" cy="354.4" rx="191.3" ry="9.7"/>
	<circle class="st3" cx="541.6" cy="206.3" r="69.6"/>
	
		<rect x="509" y="260.7" transform="matrix(-0.9999 -1.178227e-002 1.178227e-002 -0.9999 1035.9164 565.4404)" class="st3" width="21.2" height="37.9"/>
	
		<rect x="551.4" y="261.2" transform="matrix(-0.9999 -1.178227e-002 1.178227e-002 -0.9999 1120.5322 566.936)" class="st3" width="21.2" height="37.9"/>
	
		<ellipse transform="matrix(-0.9999 -1.178222e-002 1.178222e-002 -0.9999 1049.3336 604.4719)" class="st3" cx="526.4" cy="299.1" rx="17.6" ry="6.6"/>
	
		<ellipse transform="matrix(-0.9999 -1.178222e-002 1.178222e-002 -0.9999 1133.9805 604.2047)" class="st3" cx="568.8" cy="298.8" rx="17.6" ry="6.6"/>
	<circle class="st4" cx="543.6" cy="188.7" r="23.8"/>
	<circle class="st2" cx="543.6" cy="188.7" r="7.9"/>
	<path class="st5" d="M474.9,140.8c-5.3-25.2,12.9-50.5,40.8-56.4c27.9-5.9,54.8,9.8,60.1,35.1c5.3,25.2-13.2,34.3-41.1,40.2
		C506.8,165.5,480.2,166,474.9,140.8z"/>
	<path class="st5" d="M647.9,245.2c0,48.6-28.9,65.5-64.5,65.5c-0.8,0-1.6,0-2.5,0c-1.6,0-3.3-0.1-4.9-0.2
		c-32.1-2.3-57.1-20.1-57.1-65.3c0-46.7,59.7-105.7,64.2-110.1l0,0c0.2-0.2,0.3-0.3,0.3-0.3S647.9,196.6,647.9,245.2z"/>
	<path class="st2" d="M581.1,303.2l23.6-32.9L581,306.9l-0.1,3.8c-1.6,0-3.3-0.1-4.9-0.2l2.5-48.6l0-0.4l0-0.1l0.2-4.6l-23.7-36.7
		l23.8,33.2l0.1,1l1.9-36.7l-20.3-37.9l20.5,31.4l2-76.1l0-0.3v0.3l-0.3,60l20.2-23.8l-20.3,29l-0.5,32.9l18.9-31.5L582.1,238
		l-0.3,18.3l27.4-43.9l-27.5,50.3L581.1,303.2z"/>
	<circle class="st3" cx="1084.2" cy="205.6" r="69.6"/>
	
		<rect x="1075" y="263.2" transform="matrix(-0.9559 0.2938 -0.2938 -0.9559 2206.1143 232.926)" class="st3" width="21.2" height="37.9"/>
	
		<rect x="1115.4" y="250.8" transform="matrix(-0.9559 0.2938 -0.2938 -0.9559 2281.5735 196.7449)" class="st3" width="21.2" height="37.9"/>
	
		<ellipse transform="matrix(-0.2938 -0.9559 0.9559 -0.2938 1135.1287 1435.881)" class="st3" cx="1098" cy="298.6" rx="6.6" ry="17.6"/>
	
		<ellipse transform="matrix(-0.2938 -0.9559 0.9559 -0.2938 1199.8116 1457.1243)" class="st3" cx="1138.2" cy="285.3" rx="6.6" ry="17.6"/>
	<circle class="st4" cx="1080.7" cy="188.2" r="23.8"/>
	<circle class="st2" cx="1080.7" cy="188.2" r="7.9"/>
	<path class="st5" d="M1000.6,163.5c-12.8-22.4-3.1-52,21.7-66.1s55.2-7.4,67.9,15.1c12.8,22.4-2.1,36.7-26.9,50.8
		C1038.6,177.3,1013.3,185.9,1000.6,163.5z"/>
	<path class="st5" d="M960,236.3c0,44.6-26.5,60.1-59.2,60.1c-0.8,0-1.5,0-2.3,0c-1.5,0-3-0.1-4.5-0.2
		c-29.5-2.1-52.4-18.5-52.4-59.9c0-42.9,54.8-97,58.9-101l0,0c0.2-0.2,0.2-0.2,0.2-0.2S960,191.7,960,236.3z"/>
	<path class="st2" d="M898.6,289.6l21.6-30.2l-21.7,33.6l-0.1,3.5c-1.5,0-3-0.1-4.5-0.2l2.3-44.6l0-0.3l0-0.1l0.2-4.2l-21.8-33.6
		l21.8,30.5l0.1,0.9l1.8-33.7l-18.6-34.8l18.9,28.9l1.8-69.8l0-0.2v0.2l-0.3,55.1l18.5-21.8l-18.6,26.6l-0.5,30.2l17.3-28.9
		l-17.4,33.4l-0.3,16.8l25.1-40.3l-25.2,46.1L898.6,289.6z"/>
	<path class="st5" d="M1192.7,254.9c0,48.6-28.9,65.5-64.5,65.5c-0.8,0-1.6,0-2.5,0c-1.6,0-3.3-0.1-4.9-0.2
		c-32.1-2.3-57.1-20.1-57.1-65.3c0-46.7,59.7-105.7,64.2-110.1l0,0c0.2-0.2,0.3-0.3,0.3-0.3S1192.7,206.3,1192.7,254.9z"/>
	<path class="st2" d="M1125.9,312.9l23.6-32.9l-23.6,36.6l-0.1,3.8c-1.6,0-3.3-0.1-4.9-0.2l2.5-48.6l0-0.4l0-0.1l0.2-4.6l-23.7-36.7
		l23.8,33.2l0.1,1l1.9-36.7l-20.3-37.9l20.5,31.4l2-76.1l0-0.3v0.3l-0.3,60l20.2-23.8l-20.3,29l-0.5,32.9l18.9-31.5l-18.9,36.4
		l-0.3,18.3L1154,222l-27.5,50.3L1125.9,312.9z"/>
	
		<ellipse transform="matrix(-0.9035 -0.4285 0.4285 -0.9035 1912.7085 895.251)" class="st3" cx="1057.1" cy="232.3" rx="34.8" ry="10.9"/>
	
		<ellipse transform="matrix(-0.9282 -0.372 0.372 -0.9282 918.3599 633.0345)" class="st3" cx="520.3" cy="227.9" rx="34.8" ry="10.9"/>
</g>
</svg>
