<?xml version="1.0" encoding="utf-8"?>
<!-- Generator: Adobe Illustrator 19.0.0, SVG Export Plug-In . SVG Version: 6.00 Build 0)  -->
<svg version="1.1" id="ee32c68f-7624-44c0-a731-77ce30d0b408"
	 xmlns="http://www.w3.org/2000/svg" xmlns:xlink="http://www.w3.org/1999/xlink" x="0px" y="0px" viewBox="450 -305 1000 710"
	 style="enable-background:new 450 -305 1000 710;" xml:space="preserve">
<style type="text/css">
	.st0{opacity:0.7;}
	.st1{fill:url(#SVGID_1_);}
	.st2{fill:#BDBDBD;}
	.st3{opacity:0.1;}
	.st4{fill:#535461;}
	.st5{opacity:0.5;}
	.st6{fill:url(#SVGID_2_);}
	.st7{fill:#FFFFFF;}
	.st8{fill:#83B93E;}
	.st9{fill:#E0E0E0;}
	.st10{fill:none;stroke:#83B93E;stroke-width:2;stroke-miterlimit:10;}
	.st11{fill:none;stroke:#FFFFFF;stroke-miterlimit:10;}
	.st12{fill:url(#SVGID_3_);}
	.st13{opacity:0.6;fill:none;stroke:#535461;stroke-width:3;stroke-miterlimit:10;enable-background:new    ;}
	.st14{fill:#4DB6AC;}
	.st15{opacity:0.3;fill:none;stroke:#535461;stroke-miterlimit:10;enable-background:new    ;}
	.st16{opacity:0.1;enable-background:new    ;}
	.st17{fill:url(#SVGID_4_);}
	.st18{fill:#3AD29F;}
	.st19{fill:#4D8AF0;}
	.st20{fill:#F55F44;}
</style>
<title>responsiveness</title>
<g>
	<g class="st0">
		
			<linearGradient id="SVGID_1_" gradientUnits="userSpaceOnUse" x1="1063.7653" y1="-373.4709" x2="1063.7653" y2="109.3793" gradientTransform="matrix(1 0 0 -1 -114.28 -99)">
			<stop  offset="0" style="stop-color:#808080;stop-opacity:0.25"/>
			<stop  offset="0.54" style="stop-color:#808080;stop-opacity:0.12"/>
			<stop  offset="1" style="stop-color:#808080;stop-opacity:0.1"/>
		</linearGradient>
		<path class="st1" d="M1210.1-208.4H688.9c-9.3,0-16.8,7.6-16.8,16.9v358.8c0,9.3,7.5,16.9,16.8,16.9h179.3v61.9H860
			c-4.7,0-8.5,3.9-8.5,8.6c0,0,0,0,0,0v12.4h16.7v7.3h162.7v-7.3h16.7v-12.4c0-4.7-3.8-8.6-8.5-8.6c0,0,0,0,0,0h-7.7v-0.5h-0.5
			v-61.4h179.3c9.3,0,16.8-7.6,16.8-16.9v-358.8C1226.9-200.8,1219.4-208.3,1210.1-208.4z"/>
	</g>
	<rect x="869.7" y="173.5" class="st2" width="160.6" height="94.7"/>
	<g class="st3">
		<path d="M872.9,182.8h154.6c1.9-8.1,3.4-13.4,3.4-13.4H869.2C869.2,169.4,870.8,174.7,872.9,182.8z"/>
	</g>
	<path class="st4" d="M692.8-205.3h514.5c9.2,0,16.6,7.4,16.6,16.6v317l0,0H676.2l0,0v-317C676.2-197.9,683.6-205.3,692.8-205.3
		C692.8-205.3,692.8-205.3,692.8-205.3z"/>
	<path class="st2" d="M1207.2,179.7H692.8c-9.2,0-16.6-7.4-16.6-16.6v-34.9h547.6v34.9C1223.8,172.3,1216.4,179.7,1207.2,179.7z"/>
	<circle class="st4" cx="950" cy="154" r="9.3"/>
	<path class="st2" d="M861.6,240.4h176.7c4.6,0,8.4,3.8,8.4,8.4V261l0,0H853.2l0,0v-12.2C853.2,244.2,857,240.4,861.6,240.4
		C861.6,240.4,861.6,240.4,861.6,240.4z"/>
	<g class="st5">
		
			<linearGradient id="SVGID_2_" gradientUnits="userSpaceOnUse" x1="950" y1="41.8883" x2="950" y2="235.1684" gradientTransform="matrix(1 0 0 -1 0 100)">
			<stop  offset="0" style="stop-color:#808080;stop-opacity:0.25"/>
			<stop  offset="0.54" style="stop-color:#808080;stop-opacity:0.12"/>
			<stop  offset="1" style="stop-color:#808080;stop-opacity:0.1"/>
		</linearGradient>
		<path class="st6" d="M784.8-135.2h330.4c2.6,0,4.6,2.1,4.6,4.6v184c0,2.6-2.1,4.6-4.6,4.6H784.8c-2.6,0-4.6-2.1-4.6-4.6v-184
			C780.1-133.1,782.2-135.2,784.8-135.2z"/>
	</g>
	<path class="st7" d="M789.1-133.7h321.7c2.6,0,4.6,2.1,4.6,4.6V51c0,2.6-2.1,4.6-4.6,4.6H789.1c-2.6,0-4.6-2.1-4.6-4.6v-180.1
		C784.5-131.7,786.6-133.7,789.1-133.7z"/>
	<g class="st5">
		<path class="st8" d="M881.3-106.6h27.2c2.6,0,4.6,2.1,4.6,4.6v23.6c0,2.6-2.1,4.6-4.6,4.6h-27.2c-2.6,0-4.6-2.1-4.6-4.6v-23.6
			C876.7-104.5,878.8-106.6,881.3-106.6z"/>
	</g>
	<path class="st9" d="M926-106.6h94.9c1,0,1.8,0.8,1.8,1.8v0c0,1-0.8,1.8-1.8,1.8H926c-1,0-1.8-0.8-1.8-1.8v0
		C924.1-105.7,924.9-106.6,926-106.6z"/>
	<path class="st9" d="M926-95.6h78.2c1,0,1.8,0.8,1.8,1.8v0c0,1-0.8,1.8-1.8,1.8H926c-1,0-1.8-0.8-1.8-1.8v0
		C924.1-94.8,924.9-95.6,926-95.6z"/>
	<g class="st5">
		<path class="st8" d="M881.3-55.5h27.2c2.6,0,4.6,2.1,4.6,4.6v23.6c0,2.6-2.1,4.6-4.6,4.6h-27.2c-2.6,0-4.6-2.1-4.6-4.6v-23.6
			C876.7-53.4,878.8-55.5,881.3-55.5z"/>
	</g>
	<path class="st9" d="M926-55.5h94.9c1,0,1.8,0.8,1.8,1.8v0c0,1-0.8,1.8-1.8,1.8H926c-1,0-1.8-0.8-1.8-1.8v0
		C924.1-54.7,924.9-55.5,926-55.5z"/>
	<path class="st9" d="M926-44.5h94.9c1,0,1.8,0.8,1.8,1.8v0c0,1-0.8,1.8-1.8,1.8H926c-1,0-1.8-0.8-1.8-1.8v0
		C924.1-43.7,924.9-44.5,926-44.5z"/>
	<g class="st5">
		<path class="st8" d="M881.3-4.4h27.2c2.6,0,4.6,2.1,4.6,4.6v23.6c0,2.6-2.1,4.6-4.6,4.6h-27.2c-2.6,0-4.6-2.1-4.6-4.6V0.2
			C876.7-2.3,878.8-4.4,881.3-4.4z"/>
	</g>
	<path class="st9" d="M926-4.4h94.9c1,0,1.8,0.8,1.8,1.8v0c0,1-0.8,1.8-1.8,1.8H926c-1,0-1.8-0.8-1.8-1.8v0
		C924.1-3.6,924.9-4.4,926-4.4z"/>
	<path class="st9" d="M925.8,6.5h95.9c0.9,0,1.6,0.7,1.6,1.6v0.4c0,0.9-0.7,1.6-1.6,1.6h-95.9c-0.9,0-1.6-0.7-1.6-1.6V8.2
		C924.1,7.3,924.9,6.5,925.8,6.5z"/>
	<line class="st10" x1="950" y1="-165.1" x2="950" y2="-187.8"/>
	<line class="st10" x1="950" y1="-127.1" x2="950" y2="-156.8"/>
	<circle class="st8" cx="950" cy="-127.1" r="4.1"/>
	<circle class="st11" cx="950" cy="-161" r="4.1"/>
	<line class="st10" x1="950" y1="-165.1" x2="950" y2="-187.8"/>
	<line class="st10" x1="950" y1="-127.1" x2="950" y2="-156.8"/>
	<circle class="st8" cx="950" cy="-127.1" r="4.1"/>
	<circle class="st11" cx="950" cy="-161" r="4.1"/>
	<line class="st10" x1="950" y1="78.8" x2="950" y2="110.7"/>
	<line class="st10" x1="950" y1="50" x2="950" y2="79.7"/>
	<circle class="st8" cx="950" cy="50" r="4.1"/>
	<line class="st10" x1="764.7" y1="-34.9" x2="732.3" y2="-34.9"/>
	<line class="st10" x1="793" y1="-34.9" x2="763.3" y2="-34.9"/>
	<circle class="st8" cx="793" cy="-34.9" r="4.1"/>
	<g class="st3">
		<rect x="870.2" y="239.9" width="160.6" height="3.1"/>
	</g>
	<g class="st0">
		
			<linearGradient id="SVGID_3_" gradientUnits="userSpaceOnUse" x1="582.5229" y1="-215.8661" x2="758.538" y2="-215.8661" gradientTransform="matrix(1 0 0 -1 -114.28 -99)">
			<stop  offset="0" style="stop-color:#808080;stop-opacity:0.25"/>
			<stop  offset="0.54" style="stop-color:#808080;stop-opacity:0.12"/>
			<stop  offset="1" style="stop-color:#808080;stop-opacity:0.1"/>
		</linearGradient>
		<path class="st12" d="M634.5,169.5h-74.5l1-8.4c21.1-18.9,34.7-69.3,34.7-69.3c-0.3,0-0.6,0.1-0.9,0.2
			c-12.4,2.5-21.1,7.6-27.3,13.7l2.6-22.3c38.9-8.4,54.3-59.8,54.3-59.8c-24.8,5.5-40.3,14-49.9,22.1l3.8-32.8
			c26.3,9,53.5-38.9,53.5-38.9l-1-0.2l0.5-0.3l-0.8,0.3c-29.1-6.3-44.6,10.4-49.7,17.3l0.4-3.2c-0.8,2.1-1.5,4.1-2.2,6.1l0,0v0.1
			c-2.1,5.6-3.9,11.1-5.7,16.5l0,0l0,0c-1.5,4.6-2.9,9.2-4.2,13.8v-0.1c0,0-1.2-29.3-32.1-37c0,0,3.2,63.9,27.7,53.4l0,0
			c-2.3,9.3-4.1,18.2-5.7,26.8l0,0c-1,5.6-1.9,11.1-2.7,16.5l-0.1,0.2l0.1-0.1l-0.1,0.4l0,0l0,0c-0.7,4.9-1.3,9.6-1.8,14.2
			c0.5-8.9-1.1-34.5-31.3-58.6c0,0-40.1,70.6,28.3,84.4c0.2,0.1,0.3,0.3,0.5,0.4l-0.1-0.3l0.6,0.1l0.3-3.6
			c-0.8,15.1-0.7,30.3,0.2,45.4l0,0c0.1,1,0.1,2.1,0.2,3h-75.4c-28.8,59.5,16,92.1,16,92.1h123.5C665.4,201,634.5,169.5,634.5,169.5
			z M554.2,101.9L554.2,101.9L554.2,101.9z"/>
	</g>
	<path class="st13" d="M555.7,192.1c0,0-19.6-85.4,23.7-195.6"/>
	<path class="st8" d="M479.6,166.3h151.3c0,0,29.9,38.1-16.5,94.7H495C495,261,451.8,221.9,479.6,166.3z"/>
	<path class="st14" d="M577.2,2.1c0,0,15-26.8,51.1-18.5c0,0-29.8,50.7-56.6,34.1L577.2,2.1z"/>
	<path class="st14" d="M567.7,30.5c0,0-1.2-27.4-31-34.6c0,0,3.1,59.7,26.8,49.9L567.7,30.5z"/>
	<path class="st14" d="M558,71c0,0,5.5-28.7,63.2-41c0,0-18.4,59.3-65.8,56.9L558,71z"/>
	<path class="st14" d="M553.3,103.1c0,0,6.1-30-30-57.8c0,0-39.1,66.6,28.3,79.1L553.3,103.1z"/>
	<path class="st14" d="M552.2,144.4c0,0-4.2-42.4,41.1-50.6c0,0-16.5,59.2-41.2,69.7L552.2,144.4z"/>
	<path class="st15" d="M572.2,18.1c0,0,39.1-29.9,55.6-35"/>
	<path class="st15" d="M555.2,86.5c0,0,47.4-50.4,65.9-56.6"/>
	<path class="st15" d="M536.7-4c0,0,28.8,39.1,26.8,49.4"/>
	<path class="st15" d="M523.3,45.4c0,0,15.4,70,27.8,79.3"/>
	<path class="st15" d="M552.1,163.7c0,0,24.7-67.9,41.2-70"/>
	<g class="st3">
		<path d="M630.9,166.3H479.6c-0.3,0.7-0.7,1.4-1,2.1h147.2c0,0,29.1,37.2-14.8,92.6h3.5C660.7,204.4,630.9,166.3,630.9,166.3z"/>
	</g>
	<rect x="450" y="260.6" class="st9" width="1000" height="33.9"/>
	<rect x="492.4" y="294.5" class="st9" width="915.2" height="13.9"/>
	<rect x="492.4" y="294.5" class="st16" width="915.2" height="4.6"/>
	<line class="st10" x1="1160.5" y1="-34.9" x2="1166.7" y2="-34.9"/>
	<line class="st10" x1="1106" y1="-34.9" x2="1152.2" y2="-34.9"/>
	<circle class="st8" cx="1106" cy="-34.9" r="4.1"/>
	<circle class="st11" cx="1156.4" cy="-34.9" r="4.1"/>
	<g class="st0">
		
			<linearGradient id="SVGID_4_" gradientUnits="userSpaceOnUse" x1="1407.0701" y1="-270.7523" x2="1507.91" y2="-270.7523" gradientTransform="matrix(1 0 0 -1 -114.28 -99)">
			<stop  offset="0" style="stop-color:#808080;stop-opacity:0.25"/>
			<stop  offset="0.54" style="stop-color:#808080;stop-opacity:0.12"/>
			<stop  offset="1" style="stop-color:#808080;stop-opacity:0.1"/>
		</linearGradient>
		<path class="st17" d="M1389.6,249.6l0.1-0.2c0.2-0.3,0.4-0.7,0.6-1l0.1-0.2c0.2-0.3,0.4-0.7,0.6-1l0.1-0.2
			c0.2-0.4,0.4-0.8,0.6-1.2l0,0c0.4-0.8,0.7-1.7,1-2.6l0.1-0.3c0.1-0.3,0.2-0.6,0.3-1l0.1-0.5c0.1-0.3,0.1-0.6,0.2-0.9
			c0-0.2,0.1-0.3,0.1-0.5c0-0.2,0.1-0.6,0.1-0.9c0-0.3,0-0.3,0.1-0.5c0.1-0.2,0.1-0.6,0.1-0.9c0-0.1,0-0.3,0-0.4c0-0.5,0-0.9,0-1.4
			v-85h-14.3v-41.7h-17.5v41.7h-12.1V91h-17.5v59.8h-6.6V82.5h-17.5v68.4h-15.4v85c0,13.9,11.5,25.1,25.7,25.1h49.4
			c8.2,0,15.9-3.8,20.8-10.4l0,0C1389,250.3,1389.3,249.9,1389.6,249.6z"/>
	</g>
	<rect x="1310.3" y="122.1" class="st4" width="16.5" height="102.9"/>
	<rect x="1310.3" y="88.1" class="st18" width="16.5" height="34"/>
	<rect x="1332.9" y="130.3" class="st4" width="16.5" height="102.9"/>
	<rect x="1332.9" y="96.3" class="st19" width="16.5" height="34"/>
	<rect x="1360.7" y="147.8" class="st4" width="16.5" height="102.9"/>
	<rect x="1360.7" y="113.8" class="st20" width="16.5" height="34"/>
	<path class="st8" d="M1295.9,154h94.7l0,0v81.8c0,13.4-10.8,24.2-24.2,24.2h-46.3c-13.4,0-24.2-10.8-24.2-24.2V154L1295.9,154z"/>
	<g class="st3">
		<path d="M1295.9,154v4.1h90.6v81.8c0,5.4-1.8,10.7-5.1,14.9c5.9-4.6,9.3-11.6,9.3-19V154H1295.9z"/>
	</g>
</g>
</svg>
