<?xml version="1.0" encoding="utf-8"?>
<!-- Generator: Adobe Illustrator 19.0.0, SVG Export Plug-In . SVG Version: 6.00 Build 0)  -->
<svg version="1.1" id="ee32c68f-7624-44c0-a731-77ce30d0b408"
	 xmlns="http://www.w3.org/2000/svg" xmlns:xlink="http://www.w3.org/1999/xlink" x="0px" y="0px" viewBox="450 -305 1000 710"
	 style="enable-background:new 450 -305 1000 710;" xml:space="preserve">
<style type="text/css">
	.st0{fill:url(#SVGID_1_);}
	.st1{opacity:0.7;fill:#83B93E;enable-background:new    ;}
	.st2{fill:#F5F5F5;}
	.st3{fill:#FFFFFF;}
	.st4{fill:#FF5252;}
	.st5{fill:#FFFF00;}
	.st6{fill:#69F0AE;}
	.st7{fill:url(#SVGID_2_);}
	.st8{fill:#83B93E;}
	.st9{opacity:0.2;enable-background:new    ;}
	.st10{opacity:0.2;fill:#83B93E;enable-background:new    ;}
	.st11{opacity:0.5;fill:#83B93E;enable-background:new    ;}
	.st12{opacity:0.8;fill:#83B93E;enable-background:new    ;}
	.st13{fill:#64FFDA;}
	.st14{fill:url(#SVGID_3_);}
	.st15{fill:url(#SVGID_4_);}
	.st16{fill:url(#SVGID_5_);}
	.st17{fill:none;stroke:#FFFFFF;stroke-linecap:round;stroke-linejoin:round;}
	.st18{fill:none;stroke:#FFFFFF;stroke-linecap:round;stroke-linejoin:round;stroke-dasharray:0,4.07;}
	.st19{opacity:0.3;fill:none;stroke:#FFFFFF;stroke-linecap:round;stroke-linejoin:round;enable-background:new    ;}
	.st20{opacity:0.2;fill:#FFFFFF;enable-background:new    ;}
	.st21{opacity:0.1;fill:#83B93E;enable-background:new    ;}
	.st22{fill:url(#SVGID_6_);}
	.st23{fill:none;stroke:#FFFFFF;stroke-linecap:round;stroke-linejoin:round;stroke-dasharray:0,4.04;}
</style>
<title>responsiveness</title>
<g>
	
		<linearGradient id="SVGID_1_" gradientUnits="userSpaceOnUse" x1="1163.0409" y1="-164.6825" x2="1163.0409" y2="299.3" gradientTransform="matrix(0.9508 -0.3098 -0.3098 -0.9508 -152.9632 478.5508)">
		<stop  offset="0" style="stop-color:#808080;stop-opacity:0.25"/>
		<stop  offset="0.54" style="stop-color:#808080;stop-opacity:0.12"/>
		<stop  offset="1" style="stop-color:#808080;stop-opacity:0.1"/>
	</linearGradient>
	<polygon class="st0" points="537.8,-61.1 546.5,-34.3 681.3,379.9 1326.2,169.5 1191.4,-244.7 1182.7,-271.5 	"/>
	<polygon class="st1" points="519,-18 527.2,7.4 654.8,399.8 1278.7,196.2 1151.1,-196.2 1142.8,-221.6 	"/>
	
		<rect x="538.8" y="-159.9" transform="matrix(-0.9507 0.3102 -0.3102 -0.9507 1645.2192 -554.6765)" class="st2" width="655.8" height="26.7"/>
	
		<rect x="606.9" y="-143.9" transform="matrix(-0.9509 0.3093 -0.3093 -0.9509 1843.5658 -167.5286)" class="st3" width="656.3" height="412.6"/>
	<path class="st4" d="M576.8-52.1c1.3,4-0.9,8.3-4.9,9.6s-8.3-0.9-9.6-4.9c-1.3-4,0.9-8.3,4.9-9.6C571.2-58.3,575.5-56.1,576.8-52.1
		z"/>
	<path class="st5" d="M597.1-58.7c1.3,4-0.9,8.3-4.9,9.6s-8.3-0.9-9.6-4.9c-1.3-4,0.9-8.3,4.9-9.6C591.5-64.9,595.8-62.7,597.1-58.7
		z"/>
	<path class="st6" d="M617.4-65.4c1.3,4-0.9,8.3-4.9,9.6c-4,1.3-8.3-0.9-9.6-4.9c-1.3-4,0.9-8.3,4.9-9.6
		C611.8-71.6,616.1-69.4,617.4-65.4z"/>
	
		<linearGradient id="SVGID_2_" gradientUnits="userSpaceOnUse" x1="954.9997" y1="207.4964" x2="954.9997" y2="225.9066" gradientTransform="matrix(0.9508 -0.3097 -0.3097 -0.9508 -153.0355 478.4056)">
		<stop  offset="0" style="stop-color:#808080;stop-opacity:0.25"/>
		<stop  offset="0.54" style="stop-color:#808080;stop-opacity:0.12"/>
		<stop  offset="1" style="stop-color:#808080;stop-opacity:0.1"/>
	</linearGradient>
	<polygon class="st7" points="585.1,0.5 785.1,-64.7 790.7,-47.3 590.7,17.9 	"/>
	
		<rect x="583.3" y="-31.7" transform="matrix(-0.9507 0.3102 -0.3102 -0.9507 1333.9526 -260.3447)" class="st8" width="208.8" height="15.3"/>
	
		<rect x="978.9" y="-160.8" transform="matrix(-0.9507 0.3102 -0.3102 -0.9507 2065.6956 -634.882)" class="st8" width="208.8" height="15.3"/>
	
		<rect x="978.9" y="-160.8" transform="matrix(-0.9507 0.3102 -0.3102 -0.9507 2065.6956 -634.882)" class="st9" width="208.8" height="15.3"/>
	
		<rect x="618.8" y="96.6" transform="matrix(-0.9507 0.3102 -0.3102 -0.9507 1247.459 3.9306)" class="st10" width="9.1" height="9.1"/>
	
		<rect x="1208.7" y="-95.9" transform="matrix(-0.9507 0.3102 -0.3102 -0.9507 2338.3699 -554.4354)" class="st11" width="9.2" height="9.1"/>
	<path class="st10" d="M675.6,84.1c2.9,8.8-1.9,18.3-10.7,21.1s-18.3-1.9-21.1-10.7s1.9-18.3,10.7-21.1c0,0,0,0,0,0
		C663.3,70.5,672.7,75.3,675.6,84.1z"/>
	<path class="st11" d="M1194.4-85.2c2.8,8.8-2,18.3-10.8,21.1c-8.8,2.8-18.3-2-21.1-10.8c-2.8-8.8,2-18.3,10.8-21.1
		C1182.1-98.8,1191.6-94,1194.4-85.2z"/>
	
		<rect x="686.3" y="60.6" transform="matrix(-0.9507 0.3102 -0.3102 -0.9507 1451.1604 -100.3349)" class="st11" width="94.5" height="9.1"/>
	
		<rect x="712.2" y="140.4" transform="matrix(-0.9507 0.3102 -0.3102 -0.9507 1526.521 47.254)" class="st12" width="94.5" height="9.2"/>
	
		<rect x="835.4" y="100.2" transform="matrix(-0.9507 0.3102 -0.3102 -0.9507 1754.3464 -69.3691)" class="st1" width="94.5" height="9.1"/>
	
		<rect x="958.6" y="60" transform="matrix(-0.9507 0.3102 -0.3102 -0.9507 1982.1827 -185.9686)" class="st11" width="94.5" height="9.1"/>
	
		<rect x="1081.8" y="19.8" transform="matrix(-0.9507 0.3102 -0.3102 -0.9507 2210.0278 -302.5948)" class="st10" width="94.5" height="9.1"/>
	
		<rect x="738.2" y="220.2" transform="matrix(-0.9507 0.3102 -0.3102 -0.9507 1601.8815 194.8428)" class="st12" width="94.5" height="9.2"/>
	
		<rect x="861.4" y="180" transform="matrix(-0.9507 0.3102 -0.3102 -0.9507 1829.7069 78.2197)" class="st1" width="94.5" height="9.2"/>
	
		<rect x="984.6" y="139.8" transform="matrix(-0.9507 0.3102 -0.3102 -0.9507 2057.5435 -38.3797)" class="st11" width="94.5" height="9.2"/>
	
		<rect x="1107.8" y="99.6" transform="matrix(-0.9507 0.3102 -0.3102 -0.9507 2285.3882 -155.006)" class="st10" width="94.5" height="9.1"/>
	
		<rect x="809.5" y="20.4" transform="matrix(-0.9507 0.3102 -0.3102 -0.9507 1678.986 -216.9579)" class="st10" width="94.5" height="9.1"/>
	
		<rect x="932.7" y="-19.8" transform="matrix(-0.9507 0.3102 -0.3102 -0.9507 1906.8223 -333.5574)" class="st13" width="94.5" height="9.1"/>
	
		<rect x="1055.9" y="-59.9" transform="matrix(-0.9507 0.3102 -0.3102 -0.9507 2134.6526 -450.1551)" class="st10" width="94.5" height="9.1"/>
	
		<linearGradient id="SVGID_3_" gradientUnits="userSpaceOnUse" x1="871.8502" y1="10.7256" x2="871.8502" y2="58.0403" gradientTransform="matrix(0.9508 -0.3097 -0.3097 -0.9508 -153.0435 478.4128)">
		<stop  offset="0" style="stop-color:#808080;stop-opacity:0.25"/>
		<stop  offset="0.54" style="stop-color:#808080;stop-opacity:0.12"/>
		<stop  offset="1" style="stop-color:#808080;stop-opacity:0.1"/>
	</linearGradient>
	<polygon class="st14" points="635.5,160.6 680.4,145.9 695.1,190.9 650.2,205.5 	"/>
	
		<linearGradient id="SVGID_4_" gradientUnits="userSpaceOnUse" x1="871.8141" y1="-73.1745" x2="871.8141" y2="-25.8597" gradientTransform="matrix(0.9508 -0.3097 -0.3097 -0.9508 -153.0453 478.412)">
		<stop  offset="0" style="stop-color:#808080;stop-opacity:0.25"/>
		<stop  offset="0.54" style="stop-color:#808080;stop-opacity:0.12"/>
		<stop  offset="1" style="stop-color:#808080;stop-opacity:0.1"/>
	</linearGradient>
	<polygon class="st15" points="661.4,240.4 706.4,225.7 721,270.7 676.1,285.3 	"/>
	
		<rect x="644" y="154.4" transform="matrix(-0.9507 0.3102 -0.3102 -0.9507 1352.2909 136.4207)" class="st8" width="42.7" height="42.7"/>
	
		<rect x="669.9" y="234.2" transform="matrix(-0.9507 0.3102 -0.3102 -0.9507 1427.6515 284.0096)" class="st8" width="42.7" height="42.7"/>
	
		<linearGradient id="SVGID_5_" gradientUnits="userSpaceOnUse" x1="798.78" y1="77.5594" x2="798.78" y2="299.5" gradientTransform="matrix(1 0 0 -1 -149.37 -0.25)">
		<stop  offset="0" style="stop-color:#808080;stop-opacity:0.25"/>
		<stop  offset="0.54" style="stop-color:#808080;stop-opacity:0.12"/>
		<stop  offset="1" style="stop-color:#808080;stop-opacity:0.1"/>
	</linearGradient>
	<path class="st16" d="M759.6-299.8l-260.2,84.9l39.9,122.6l37.1-12.1c0.1,5.4-0.1,22.3-8.7,26.5c0,0,18.1,0.6,29.4-33.3l202.4-66.1
		L759.6-299.8z"/>
	<path class="st8" d="M753.9-293.6l-246.4,80.4l37.8,116l35.1-11.5c0.1,5.1-0.1,21.1-8.2,25.1c0,0,17.2,0.5,27.8-31.5l191.6-62.5
		L753.9-293.6z"/>
	<line class="st17" x1="532.1" y1="-206.8" x2="532.1" y2="-206.8"/>
	<line class="st18" x1="533.3" y1="-202.9" x2="557.9" y2="-127.5"/>
	<line class="st17" x1="558.5" y1="-125.6" x2="558.5" y2="-125.6"/>
	<line class="st17" x1="560.4" y1="-117.4" x2="764.7" y2="-184.1"/>
	<line class="st19" x1="564.9" y1="-142.9" x2="737.3" y2="-199.2"/>
	<line class="st19" x1="557.8" y1="-164.7" x2="730.3" y2="-220.9"/>
	<line class="st19" x1="550.7" y1="-186.4" x2="723.2" y2="-242.7"/>
	<line class="st19" x1="543.7" y1="-208.2" x2="716.1" y2="-264.5"/>
	<path class="st20" d="M600.2-152.1c-0.1-0.3-0.1-0.7-0.1-1c0.2-2.8,2.4-5.2,5.2-5.6l0.7-0.1c4.8-1.2,9.8-3,13.1-6.8
		c5.1-6,4.5-15.1,3.7-22.5c-0.3-2.3,0-4.7,0.9-6.9c3.2-7,10.1-5.2,16.1-5.5c10.2-0.8,18.7-8.2,20.7-18.3c0.7-4.2,0.3-8.5,0.9-12.8
		c0.9-5.8,3.7-11.2,8.1-15.1c4.5-4,10.3-6.3,15.9-8.2c4.5-1.6,9.2-2.4,13.9-2.3h0.3c8.2,0.3,15.3,5.5,18.2,13.1
		c1.2,3.2,2.3,6.5,3.4,9.9c6.1,18.9,11.8,36.3,18.9,58.1c-8.7,2.8-29.1,9.4-31.9,10.3l-30.4,9.9c-20.3,6.6-39.7,13.6-62.3,20.3
		c-4.7,1.4,0,0-10.1,3.3C603.5-137.6,603.4-137.8,600.2-152.1z"/>
	
		<rect x="565.1" y="-59.4" transform="matrix(-0.9507 0.3102 -0.3102 -0.9507 1337.4565 -325.3356)" class="st21" width="259" height="6.1"/>
	
		<linearGradient id="SVGID_6_" gradientUnits="userSpaceOnUse" x1="1480.5748" y1="-92.42" x2="1480.5748" y2="95.75" gradientTransform="matrix(1 0 0 -1 -149.37 -0.25)">
		<stop  offset="0" style="stop-color:#808080;stop-opacity:0.25"/>
		<stop  offset="0.54" style="stop-color:#808080;stop-opacity:0.12"/>
		<stop  offset="1" style="stop-color:#808080;stop-opacity:0.1"/>
	</linearGradient>
	<path class="st22" d="M1400.6,67.2L1347.6-96l-76.7,25l7.6,23.3c-3.4,0.1-14-0.1-16.6-5.4c0,0-0.4,11.4,20.8,18.4l41.3,126.9
		L1400.6,67.2z"/>
	<path class="st8" d="M1395.5,62.5l-49.3-151.6L1275-65.9l7,21.6c-3.1,0.1-13-0.1-15.4-5c0,0-0.3,10.6,19.4,17.1l38.4,117.9
		L1395.5,62.5z"/>
	<line class="st17" x1="1342.3" y1="-74" x2="1342.3" y2="-74"/>
	<line class="st23" x1="1338.4" y1="-72.8" x2="1294.3" y2="-58.4"/>
	<line class="st17" x1="1292.4" y1="-57.8" x2="1292.4" y2="-57.8"/>
	<line class="st17" x1="1287.3" y1="-56.6" x2="1328.2" y2="69.1"/>
	<line class="st19" x1="1303" y1="-53.8" x2="1337.6" y2="52.3"/>
	<line class="st19" x1="1316.4" y1="-58.2" x2="1350.9" y2="47.9"/>
	<line class="st19" x1="1329.8" y1="-62.6" x2="1364.3" y2="43.6"/>
	<line class="st19" x1="1343.1" y1="-66.9" x2="1377.6" y2="39.2"/>
	<path class="st20" d="M1308.7-32.1c0.2,0,0.4,0,0.6,0c1.7,0.1,3.2,1.5,3.4,3.2c0,0.2,0.1,0.3,0.1,0.5c0.7,3,1.8,6,4.2,8
		c3.7,3.1,9.3,2.8,13.8,2.2c1.4-0.2,2.9,0,4.2,0.6c4.3,2,3.2,6.3,3.4,9.9c0.4,6.3,5,11.5,11.2,12.8c2.6,0.5,5.2,0.2,7.8,0.5
		c3.6,0.5,6.9,2.3,9.3,5c2.5,2.8,3.9,6.4,5,9.8c1,2.7,1.4,5.6,1.4,8.6V29c-0.2,5-3.4,9.4-8.1,11.2c-2,0.8-4,1.4-6.1,2.1L1323.3,54
		c-1.7-5.4-5.8-17.9-6.3-19.6c-2.1-6.5-4-12.2-6.1-18.7c-4.1-12.5-8.3-24.4-12.5-38.3c-0.8-2.9,0,0-2-6.2
		C1299.7-30.1,1299.9-30.1,1308.7-32.1z"/>
	
		<rect x="1235.8" y="-50.1" transform="matrix(-0.9507 0.3102 -0.3102 -0.9507 2427.2395 -327.4367)" class="st21" width="7.6" height="158.6"/>
</g>
</svg>
