<?xml version="1.0" encoding="utf-8"?>
<!-- Generator: Adobe Illustrator 19.0.0, SVG Export Plug-In . SVG Version: 6.00 Build 0)  -->
<svg version="1.1" id="ee32c68f-7624-44c0-a731-77ce30d0b408"
	 xmlns="http://www.w3.org/2000/svg" xmlns:xlink="http://www.w3.org/1999/xlink" x="0px" y="0px" viewBox="450 -305 1000 710"
	 style="enable-background:new 450 -305 1000 710;" xml:space="preserve">
<style type="text/css">
	.st0{opacity:0.2;fill:#83B93E;enable-background:new    ;}
	.st1{fill:#83B93E;}
	.st2{fill:none;stroke:#535461;stroke-width:2;stroke-miterlimit:10;}
	.st3{opacity:0.2;fill:#F5F5F5;enable-background:new    ;}
	.st4{fill:url(#SVGID_1_);}
	.st5{fill:#E14B5A;}
	.st6{fill:#F7C4A7;}
	.st7{opacity:0.1;enable-background:new    ;}
	.st8{fill:#575988;}
	.st9{opacity:0.1;}
	.st10{fill:#632652;}
	.st11{fill:#535461;}
	.st12{fill:#FFFFFF;}
	.st13{opacity:0.1;fill:none;stroke:#000000;stroke-miterlimit:10;enable-background:new    ;}
	.st14{fill:#6A5C99;}
	.st15{fill:#FFD037;}
	.st16{fill:#D6D6E3;}
</style>
<title>responsiveness</title>
<g>
	<rect x="1235.2" y="-64.8" class="st0" width="47.4" height="24.6"/>
	<rect x="1238.9" y="-34.7" class="st0" width="47.4" height="24.6"/>
	<rect x="1199.7" y="-243.4" class="st0" width="47.4" height="24.6"/>
	<rect x="1233.4" y="-215.1" class="st0" width="47.4" height="24.6"/>
	<rect x="1142.3" y="-241.5" class="st0" width="47.4" height="24.6"/>
	<rect x="1294.4" y="-186.9" class="st0" width="47.4" height="24.6"/>
	<rect x="1237" y="-185.1" class="st0" width="47.4" height="24.6"/>
	<rect x="1176" y="-213.3" class="st0" width="47.4" height="24.6"/>
	<rect x="1291.7" y="2.6" class="st0" width="47.4" height="24.6"/>
	<rect x="1234.3" y="4.4" class="st0" width="47.4" height="24.6"/>
	<path class="st1" d="M658.6-71.2c0,0,66.8,66.8,29.1,165.8s64.6,263.9,64.6,263.9s-1.1-0.2-3.1-0.5C612,333.8,543.9,177,620.2,60.5
		C648.5,17.1,671.8-33.7,658.6-71.2z"/>
	<path class="st2" d="M658.6-71.2c0,0,37.7,81.9,0,148.6s-6.5,254.2,93.7,281.1"/>
	<path class="st1" d="M539.7,198.9c0,0,76.2-12.1,83.1,56.2s146.5,77.8,146.5,77.8s-0.9,0.6-2.6,1.7
		c-115.2,75.6-225.4,48.2-208.8-52.3C564.1,244.9,563.6,207.4,539.7,198.9z"/>
	<path class="st3" d="M539.7,198.9c0,0,76.2-12.1,83.1,56.2s146.5,77.8,146.5,77.8s-0.9,0.6-2.6,1.7
		c-115.2,75.6-225.4,48.2-208.8-52.3C564.1,244.9,563.6,207.4,539.7,198.9z"/>
	<path class="st2" d="M539.7,198.9c0,0,59.1,13,54.3,66.8c-4.9,53.8,87.8,118.3,175.4,67.1"/>
	<rect x="540.1" y="-63.9" class="st0" width="47.4" height="24.6"/>
	<rect x="573.8" y="-35.6" class="st0" width="47.4" height="24.6"/>
	<rect x="1203.3" y="131.1" class="st0" width="47.4" height="24.6"/>
	<rect x="577.4" y="-5.6" class="st0" width="47.4" height="24.6"/>
	<rect x="863.5" y="-294.4" class="st0" width="47.4" height="24.6"/>
	<rect x="690.4" y="-127.7" class="st0" width="47.4" height="24.6"/>
	<rect x="724.1" y="-99.4" class="st0" width="47.4" height="24.6"/>
	<rect x="814.3" y="-114.9" class="st0" width="47.4" height="24.6"/>
	<rect x="727.7" y="-69.4" class="st0" width="47.4" height="24.6"/>
	<rect x="1267.1" y="131.1" class="st0" width="47.4" height="24.6"/>
	
		<linearGradient id="SVGID_1_" gradientUnits="userSpaceOnUse" x1="1109.4955" y1="-170.9064" x2="1109.4955" y2="323.3149" gradientTransform="matrix(1 0 0 -1 -149.42 43.5)">
		<stop  offset="0" style="stop-color:#808080;stop-opacity:0.25"/>
		<stop  offset="0.54" style="stop-color:#808080;stop-opacity:0.12"/>
		<stop  offset="1" style="stop-color:#808080;stop-opacity:0.1"/>
	</linearGradient>
	<path class="st4" d="M1196.1,33.7c-3.1-17.1-4.9-34.3-5.6-51.7l0,0c-1.2-29.2-20.7-54.6-48.7-63.2c-5-1.5-10.5-3-16.5-4.2
		c-53-11.3-69.1-1.4-71-0.1c-1.6-2.8-2.9-5.7-4-8.8c-0.1-0.3-0.2-0.6-0.3-0.9c10.5-11.2,16.9-25.6,18.1-40.9c8.8-9,14-19.8,14-31.4
		c0-10-3.8-19.4-10.5-27.6V-211c0-38-30.8-68.9-68.9-68.9l0,0h-5.6c-38,0-68.9,30.8-68.9,68.9l0,0v17.1c-6.1,7.8-9.5,16.8-9.5,26.3
		c0,11.4,5,22,13.5,30.9c1.2,15.9,7.8,30.8,18.9,42.2c0.4,2.6,0.8,5.4,1.1,8.3l-94.8,20c0,0-36.6,1.5-60.1,50.1
		c-19.9,41.2-59.6,146.9-71.3,178.4l0,0c-2.1,5.7-3.3,9-3.3,9s0.4-0.4,1.1-1.1l-1.1,3.1c0,0,0.6-0.6,1.7-1.5
		c-1.7,13.2-1.9,35.8,15.4,38.6c14.5,2.4,51.7,3.3,79.9,3.7l0,0h1.9c18.7,0.2,32.9,0.2,32.9,0.2v-0.2h302.9v-3.1
		c0-2.8-0.6-5.6-1.7-8.2l0.4-0.5c1.6,2.1,2.7,4.6,3.1,7.3c0,0.3-0.1,0.5-0.1,0.8l0.2-0.5c0.1,0.8,0,1.7-0.2,2.5
		c0,0,38.9-100.1,38.4-159.9C1197.6,46.2,1197.1,39.9,1196.1,33.7z M953.8-72.7c-0.5-2.9-0.8-5.7-1-8.6c0,0,0-0.1,0-0.1
		C953.2-78.6,953.5-75.7,953.8-72.7z M836.1,142.4v23.9l-14.9,3.2L836.1,142.4z"/>
	<path class="st5" d="M998.4-270.2L998.4-270.2c38,0,68.9,30.8,68.9,68.9v29.4l0,0H929.6l0,0v-29.4
		C929.6-239.4,960.4-270.2,998.4-270.2z"/>
	<ellipse class="st5" cx="998.9" cy="-162.3" rx="78.5" ry="53.9"/>
	<path class="st6" d="M948.6-110.1c0,0,16.4,85.7,0,108.8S998.7,31,998.7,31l68.8-25l9.6-61.6c0,0-41.9-23.6-33.2-71.3L948.6-110.1z
		"/>
	<path class="st6" d="M1151.8,178.8c0,0,4.3,18.8-19.3,22.1c-13.9,2-28.1,1.9-42-0.5l-5.2-47.2h54.9L1151.8,178.8z"/>
	<path class="st6" d="M735.1,154.8c0,0-10.4,42.4,13.2,46.2c23.6,3.8,110.2,3.9,110.2,3.9v-50.1l-39.2,8.4l-36.8-35.3L735.1,154.8z"
		/>
	<path class="st7" d="M953.6-82.4l-92.2,19.5c0,0-35.1,1.4-57.8,48.2s-71.7,180.1-71.7,180.1s41.9-42.4,91,2.9l32.7-59.2l-7.2,93.9
		h253.7v-44.3c0,0,53,28.4,49.1,44.3c0,0,45.3-116.8,35.5-169.9c-2.9-16.4-4.8-33-5.4-49.7l0,0c-1.2-28.1-19.9-52.4-46.8-60.7
		c-4.8-1.5-10-2.8-15.9-4.1c-54.4-11.6-68.3,0-68.3,0s-10.5,34.3-10.3,49.8c0.2,20-28.4,33.2-28.4,33.2s-42.4-10.1-44.3-18.3
		C965.4-24.8,950.3-72.8,953.6-82.4z"/>
	<path class="st8" d="M953.6-84.3l-92.2,19.5c0,0-35.1,1.4-57.8,48.2s-71.8,180.1-71.8,180.1s41.9-42.4,91,2.9l32.7-59.2l-7.2,93.9
		h253.7v-44.3c0,0,53,28.4,49.1,44.3c0,0,45.3-116.8,35.5-169.9c-2.9-16.4-4.8-33-5.4-49.7l0,0c-1.2-28.1-19.9-52.4-46.8-60.7
		c-4.8-1.5-10-2.8-15.9-4.1c-54.4-11.6-68.3,0-68.3,0s-10.5,34.3-10.3,49.8c0.2,20-28.4,33.2-28.4,33.2s-42.4-10.1-44.3-18.3
		C965.4-26.8,950.3-74.7,953.6-84.3z"/>
	<path class="st7" d="M1047.9-88.4c-3.9-11-4.7-22.8-2.5-34.2L950-105.8c0,0,1.4,7.2,2.9,18c25.1,26,66.5,26.8,92.6,1.7
		C1046.3-86.8,1047.1-87.6,1047.9-88.4L1047.9-88.4z"/>
	<path class="st6" d="M1064.1-137.5c-0.2,36.2-29.6,65.4-65.8,65.2c-35.3-0.2-64.2-28.3-65.2-63.6c0-0.5,0-1.1,0-1.6
		c0-25,14.2-47.9,36.7-58.8c2-1,4-1.8,6-2.6c10.8-4,22.4-5,33.7-3.1l0,0c29.9,5.1,52.3,30,54.3,60.2
		C1064.1-140.4,1064.1-139,1064.1-137.5z"/>
	<g class="st9">
		<path d="M975.8-197.4L975.8-197.4c-2,0.7-4,1.6-6,2.5c-22.5,11-36.7,33.8-36.7,58.8c0,0.5,0,1.1,0,1.6c2-0.1,4-0.5,5.9-1.4
			c16-7.5,25.5-30.2,29.3-46.1C969.7-187.7,971-194.1,975.8-197.4z"/>
		<path d="M1026-195.6c-5.2-2.4-10.7-4.1-16.3-5c4.6,1.1,8.7,3.6,11.7,7.3c1.4,2,2.7,4.1,3.6,6.4c-17.6-7.7-37.8-7.3-55.1,1.1
			c4.1,9,16.9,13.9,25.4,17.2c9.3,3.6,18.7,6.9,28.2,9.9l-8.4-6.8l19,3c0.2-3.8-0.2-7.6-1.3-11.2c3.6,2.9,8.5,3.9,12.4,6.4
			c7.4,4.7,10.5,13.7,14.5,21.5c1.1,2.1,2.3,4.2,4.2,5.5C1062.4-164.4,1047.8-185.6,1026-195.6z"/>
	</g>
	<path class="st10" d="M975.8-198.9L975.8-198.9c-2,0.7-4,1.6-6,2.5c-22.5,11-36.7,33.8-36.7,58.8c0,0.5,0,1.1,0,1.6
		c2-0.1,4-0.5,5.9-1.4c16-7.5,25.5-30.2,29.3-46.1C969.7-189.2,971-195.6,975.8-198.9z"/>
	<path class="st10" d="M1026-197.1c-5.2-2.4-10.7-4.1-16.3-5c4.6,1.1,8.7,3.6,11.7,7.3c1.4,2,2.7,4.1,3.6,6.4
		c-17.6-7.7-37.8-7.3-55.1,1.1c4.1,9,16.9,13.9,25.4,17.2c9.3,3.6,18.7,6.9,28.2,9.9l-8.4-6.8l19,3c0.2-3.8-0.2-7.6-1.3-11.2
		c3.6,2.9,8.5,3.9,12.4,6.4c7.4,4.7,10.5,13.7,14.5,21.5c1.1,2.1,2.3,4.2,4.2,5.5C1062.4-165.8,1047.8-187,1026-197.1z"/>
	<path class="st7" d="M925.7-148.3c0,0,67.4-83.8,145.4,0l-6.7-18.8c0,0-36.6-53.4-62.6-41.9c-26,11.5-51.5,19.7-51.5,19.7
		L925.7-148.3z"/>
	<path class="st5" d="M925.7-149.8c0,0,67.4-83.8,145.4,0l-6.7-18.8c0,0-36.6-53.4-62.6-41.9c-26,11.5-51.5,19.7-51.5,19.7
		L925.7-149.8z"/>
	<path class="st7" d="M870.3,30.8c0,0-14.4,38.5,5.8,73.2c20.2,34.7-17.8,49.1-17.8,49.1"/>
	<path class="st7" d="M1104.3-3.9c0,0,25,31.8,8.7,60.2c-16.4,28.4-15.4,96.8-15.4,96.8"/>
	<path class="st11" d="M848.2,181.5h278.3c12.8,0,23.1,10.3,23.1,23.1l0,0l0,0H825.1l0,0l0,0C825.1,191.8,835.4,181.5,848.2,181.5z"
		/>
	<path class="st11" d="M876.5,22.6h221.7c19.6,0,35.5,15.9,35.5,35.5v128.7l0,0H841l0,0V58.1C841,38.5,856.9,22.6,876.5,22.6z"/>
	<circle class="st12" cx="987.1" cy="111.9" r="17.3"/>
	<path class="st13" d="M929.6-187.6c0,0,66.3-66.2,137.7-1.2"/>
	<rect x="1077.4" y="-191.8" class="st14" width="6.7" height="37.7"/>
	<path class="st15" d="M1068.5-167.4L1068.5-167.4c12.7,0,22.9,10.3,22.9,22.9v1.5c0,12.7-10.3,22.9-22.9,22.9l0,0l0,0V-167.4
		L1068.5-167.4z"/>
	<path class="st14" d="M1069.2-169.6L1069.2-169.6c2.9,0,5.2,2.3,5.2,5.2v41.4c0,2.9-2.3,5.2-5.2,5.2l0,0c-2.9,0-5.2-2.3-5.2-5.2
		v-41.4C1064-167.3,1066.4-169.6,1069.2-169.6z"/>
	<rect x="912.1" y="-191.1" class="st14" width="6.7" height="37.7"/>
	<path class="st15" d="M927.7-119.4L927.7-119.4c-12.7,0-22.9-10.3-22.9-22.9v-1.5c0-12.7,10.3-22.9,22.9-22.9l0,0l0,0V-119.4
		L927.7-119.4z"/>
	<path class="st14" d="M926.9-117.2L926.9-117.2c-2.9,0-5.2-2.3-5.2-5.2v-41.4c0-2.9,2.3-5.2,5.2-5.2l0,0c2.9,0,5.2,2.3,5.2,5.2
		v41.4C932.1-119.5,929.8-117.2,926.9-117.2z"/>
	<path class="st15" d="M1076.6-232.1c-9-18.7-28.6-41.4-70.9-43.2v-0.1h-0.5l0,0l-15,0.7v0.1c-42,1.9-61.6,24.5-70.5,43.2
		c-6,12.7-9.2,26.5-9.3,40.5l5.2-0.1l5.2-0.1c0.2-12.5,3.1-24.7,8.4-36c11.4-23.4,32.4-35.9,62.4-37l0,0l13.3-0.7l0,0
		c30,1.1,51,13.6,62.4,37c5.3,11.3,8.2,23.6,8.4,36l5.2,0.1l5.2,0.1C1085.7-205.7,1082.5-219.5,1076.6-232.1z"/>
	<rect x="607.2" y="204.9" class="st16" width="705.8" height="189.5"/>
	<rect x="607.2" y="217.6" class="st7" width="705.8" height="24.6"/>
	<rect x="559.8" y="202.2" class="st16" width="800.5" height="24.6"/>
</g>
</svg>
